HIERARCHY
ROOT hip
{
	OFFSET 0.000000 0.000000 0.000000
	CHANNELS 6 Xposition Yposition Zposition Xrotation Zrotation Yrotation 
	JOINT abdomen
	{
		OFFSET 0.000000 3.422050 0.000000
		CHANNELS 3 Xrotation Zrotation Yrotation 
		JOINT chest
		{
			OFFSET 0.000000 8.486693 -0.684411
			CHANNELS 3 Xrotation Zrotation Yrotation 
			JOINT neck
			{
				OFFSET 0.000000 10.266162 -0.273764
				CHANNELS 3 Xrotation Zrotation Yrotation 
				JOINT head
				{
					OFFSET 0.000000 3.148285 0.000000
					CHANNELS 3 Xrotation Zrotation Yrotation 
					End Site
					{
						OFFSET 0.000000 3.148289 0.000000
					}
				}
			}
			JOINT lCollar
			{
				OFFSET 3.422053 6.707223 -0.821293
				CHANNELS 3 Yrotation Zrotation Xrotation 
				JOINT lShldr
				{
					OFFSET 3.285171 0.000000 0.000000
					CHANNELS 3 Zrotation Yrotation Xrotation 
					JOINT lForeArm
					{
						OFFSET 10.129278 0.000000 0.000000
						CHANNELS 3 Yrotation Zrotation Xrotation 
						JOINT lHand
						{
							OFFSET 8.486692 0.000000 0.000000
							CHANNELS 3 Zrotation Yrotation Xrotation 
							End Site
							{
								OFFSET 4.106464 0.000000 0.000000
							}
						}
					}
				}
			}
			JOINT rCollar
			{
				OFFSET -3.558935 6.707223 -0.821293
				CHANNELS 3 Yrotation Zrotation Xrotation 
				JOINT rShldr
				{
					OFFSET -3.148289 0.000000 0.000000
					CHANNELS 3 Zrotation Yrotation Xrotation 
					JOINT rForeArm
					{
						OFFSET -10.266159 0.000000 0.000000
						CHANNELS 3 Yrotation Zrotation Xrotation 
						JOINT rHand
						{
							OFFSET -8.349810 0.000000 0.000000
							CHANNELS 3 Zrotation Yrotation Xrotation 
							End Site
							{
								OFFSET -4.106464 0.000000 0.000000
							}
						}
					}
				}
			}
		}
	}
	JOINT lThigh
	{
		OFFSET 5.338403 -1.642589 1.368821
		CHANNELS 3 Xrotation Zrotation Yrotation 
		JOINT lShin
		{
			OFFSET -2.053232 -20.121670 0.000000
			CHANNELS 3 Xrotation Zrotation Yrotation 
			JOINT lFoot
			{
				OFFSET 0.000000 -19.300380 -1.231939
				CHANNELS 3 Xrotation Yrotation Zrotation 
				End Site
				{
					OFFSET 0.000000 -2.463878 4.653993
				}
			}
		}
	}
	JOINT rThigh
	{
		OFFSET -5.338403 -1.642589 1.368821
		CHANNELS 3 Xrotation Zrotation Yrotation 
		JOINT rShin
		{
			OFFSET 2.053232 -20.121670 0.000000
			CHANNELS 3 Xrotation Zrotation Yrotation 
			JOINT rFoot
			{
				OFFSET 0.000000 -19.300380 -1.231939
				CHANNELS 3 Xrotation Yrotation Zrotation 
				End Site
				{
					OFFSET 0.000000 -2.463878 4.653993
				}
			}
		}
	}
}
MOTION
Frames: 15
Frame Time: 0.033264
0.000000 43.528500 0.000000 0.000000 0.000000 0.000000 0.000000 0.000000 0.000000 0.000000 0.000000 0.000000 0.000000 0.000000 0.000000 0.000000 0.000000 0.000000 0.000000 0.000000 0.000000 0.000000 0.000000 0.000000 0.000000 0.000000 0.000000 0.000000 0.000000 0.000000 0.000000 0.000000 0.000000 0.000000 0.000000 0.000000 0.000000 0.000000 0.000000 0.000000 0.000000 0.000000 0.000000 0.000000 0.000000 0.000000 0.000000 0.000000 0.000000 0.000000 0.000000 0.000000 0.000000 0.000000 0.000000 0.000000 0.000000 0.000000 0.000000 0.000000 
-0.345425 6.375259 -0.856071 -94.004440 0.000000 0.000000 3.329710 -0.490603 -0.393860 8.173230 -0.958410 -0.645233 -3.002615 0.000000 0.000000 7.999141 0.000000 0.000000 16.682348 -10.283552 -18.372406 91.774849 -5.275974 0.249964 -4.583843 1.802077 -0.731206 -3.202825 21.255016 -46.789036 -16.866230 10.234790 -18.316301 -91.866257 5.275929 0.230902 4.569882 -1.826032 -0.719968 3.420341 -21.306589 -47.105370 -93.099106 44.222633 29.257109 6.998376 -0.625363 -10.080412 17.805363 -14.775158 11.402665 -93.091095 -44.304146 -29.286175 6.997079 0.649783 10.085420 18.367023 14.671113 -11.584359 
-0.345425 6.375259 -0.856071 -94.004433 0.000000 0.000000 3.329710 -0.490603 -0.393860 8.173230 -0.958410 -0.645233 -2.502982 0.000000 0.000000 7.999142 0.000000 0.000000 16.682348 -10.283553 -18.372408 91.774849 -5.275974 0.249964 -4.583843 1.802077 -0.731206 -3.202825 21.255016 -46.789036 -16.866230 10.234790 -18.316301 -91.866257 5.275929 0.230903 4.569882 -1.826032 -0.719968 3.420341 -21.306589 -47.105370 -93.099106 44.222637 29.257113 7.553327 -0.625341 -10.080350 17.805363 -14.775158 11.402665 -93.091095 -44.304150 -29.286182 7.552032 0.649741 10.085480 18.367023 14.671113 -11.584359 
-0.345425 6.375259 -0.856071 -94.004440 0.000000 0.000000 3.329711 -0.490603 -0.393860 8.173231 -0.958410 -0.645233 -2.003198 0.000000 0.000000 7.999142 0.000000 0.000000 16.682350 -10.283553 -18.372406 91.774864 -5.275974 0.249964 -4.583844 1.802077 -0.731206 -3.202826 21.255020 -46.789040 -16.866230 10.234790 -18.316301 -91.866257 5.275929 0.230902 4.569883 -1.826032 -0.719968 3.420341 -21.306589 -47.105370 -93.099121 44.222641 29.257109 8.108488 -0.625320 -10.080291 17.805363 -14.775158 11.402666 -93.091095 -44.304146 -29.286175 8.107193 0.649699 10.085540 18.367023 14.671113 -11.584359 
-0.345425 6.375259 -0.856071 -94.004448 0.000000 0.000000 3.329710 -0.490603 -0.393860 8.173231 -0.958410 -0.645233 -1.503280 0.000000 0.000000 7.999142 0.000000 0.000000 16.682348 -10.283554 -18.372408 91.774849 -5.275974 0.249964 -4.583844 1.802077 -0.731206 -3.202826 21.255018 -46.789043 -16.866230 10.234791 -18.316301 -91.866257 5.275929 0.230903 4.569883 -1.826032 -0.719968 3.420341 -21.306591 -47.105370 -93.099121 44.222641 29.257113 8.663831 -0.625300 -10.080229 17.805363 -14.775158 11.402665 -93.091095 -44.304150 -29.286182 8.662536 0.649657 10.085598 18.367023 14.671115 -11.584360 
-0.345425 6.375259 -0.856071 -94.004440 0.000000 0.000000 3.329710 -0.490603 -0.393860 8.173230 -0.958410 -0.645233 -1.003248 0.000000 0.000000 7.999141 0.000000 0.000000 16.682346 -10.283552 -18.372406 91.774841 -5.275973 0.249964 -4.583843 1.802076 -0.731206 -3.202824 21.255014 -46.789036 -16.866228 10.234789 -18.316301 -91.866257 5.275929 0.230902 4.569882 -1.826032 -0.719968 3.420341 -21.306589 -47.105370 -93.099091 44.222630 29.257109 9.219331 -0.625279 -10.080170 17.805361 -14.775158 11.402664 -93.091095 -44.304142 -29.286171 9.218037 0.649613 10.085656 18.367023 14.671113 -11.584359 
-0.345425 6.375259 -0.856071 -94.004440 0.000000 0.000000 3.329710 -0.490603 -0.393860 8.173228 -0.958410 -0.645233 -0.503121 0.000000 0.000000 7.999141 0.000000 0.000000 16.682348 -10.283552 -18.372406 91.774849 -5.275974 0.249964 -4.583843 1.802077 -0.731206 -3.202825 21.255016 -46.789036 -16.866230 10.234789 -18.316299 -91.866257 5.275928 0.230903 4.569882 -1.826032 -0.719968 3.420341 -21.306589 -47.105370 -93.099106 44.222633 29.257109 9.774961 -0.625260 -10.080108 17.805363 -14.775158 11.402664 -93.091095 -44.304146 -29.286175 9.773666 0.649570 10.085712 18.367023 14.671113 -11.584359 
-0.345425 6.375259 -0.856071 -94.004440 0.000000 0.000000 3.329710 -0.490603 -0.393860 8.173230 -0.958410 -0.645233 -0.002917 0.000000 0.000000 7.999141 0.000000 0.000000 16.682348 -10.283552 -18.372406 91.774849 -5.275974 0.249964 -4.583843 1.802077 -0.731206 -3.202825 21.255016 -46.789036 -16.866230 10.234790 -18.316301 -91.866257 5.275929 0.230902 4.569882 -1.826032 -0.719968 3.420341 -21.306589 -47.105370 -93.099106 44.222633 29.257109 10.330695 -0.625241 -10.080047 17.805363 -14.775158 11.402665 -93.091095 -44.304146 -29.286175 10.329405 0.649525 10.085772 18.367023 14.671112 -11.584359 
-0.345425 6.375259 -0.856071 -94.004440 0.000000 0.000000 3.329710 -0.490603 -0.393860 8.173230 -0.958410 -0.645233 0.497344 0.000000 0.000000 7.999141 0.000000 0.000000 16.682348 -10.283552 -18.372406 91.774849 -5.275974 0.249964 -4.583843 1.802077 -0.731206 -3.202825 21.255016 -46.789036 -16.866230 10.234790 -18.316301 -91.866257 5.275929 0.230902 4.569882 -1.826032 -0.719968 3.420341 -21.306589 -47.105370 -93.099106 44.222633 29.257109 10.886507 -0.625223 -10.079985 17.805363 -14.775158 11.402665 -93.091095 -44.304146 -29.286175 10.885216 0.649480 10.085827 18.367023 14.671113 -11.584359 
-0.345425 6.375259 -0.856071 -94.004433 0.000000 0.000000 3.329710 -0.490603 -0.393860 8.173230 -0.958410 -0.645233 0.997642 0.000000 0.000000 7.999141 0.000000 0.000000 16.682350 -10.283552 -18.372406 91.774849 -5.275974 0.249964 -4.583843 1.802077 -0.731206 -3.202825 21.255016 -46.789036 -16.866232 10.234790 -18.316301 -91.866257 5.275929 0.230903 4.569882 -1.826032 -0.719968 3.420341 -21.306591 -47.105370 -93.099106 44.222637 29.257113 11.442375 -0.625205 -10.079926 17.805365 -14.775159 11.402667 -93.091095 -44.304146 -29.286179 11.441082 0.649435 10.085883 18.367023 14.671115 -11.584360 
-0.345425 6.375259 -0.856071 -94.004448 0.000000 0.000000 3.329710 -0.490603 -0.393860 8.173231 -0.958410 -0.645233 1.497960 0.000000 0.000000 7.999142 0.000000 0.000000 16.682348 -10.283552 -18.372406 91.774849 -5.275974 0.249964 -4.583844 1.802077 -0.731206 -3.202825 21.255020 -46.789040 -16.866232 10.234790 -18.316303 -91.866257 5.275929 0.230902 4.569883 -1.826032 -0.719968 3.420341 -21.306589 -47.105370 -93.099121 44.222645 29.257113 11.998267 -0.625188 -10.079865 17.805367 -14.775161 11.402666 -93.091095 -44.304146 -29.286175 11.996973 0.649389 10.085939 18.367027 14.671113 -11.584360 
-0.345425 6.375259 -0.856071 -94.004440 0.000000 0.000000 3.329710 -0.490603 -0.393860 8.173230 -0.958410 -0.645233 1.998279 0.000000 0.000000 7.999140 0.000000 0.000000 16.682346 -10.283552 -18.372404 91.774841 -5.275973 0.249964 -4.583843 1.802077 -0.731206 -3.202825 21.255016 -46.789036 -16.866230 10.234790 -18.316301 -91.866249 5.275928 0.230902 4.569882 -1.826032 -0.719968 3.420341 -21.306587 -47.105366 -93.099106 44.222633 29.257109 12.554159 -0.625171 -10.079802 17.805361 -14.775158 11.402665 -93.091095 -44.304146 -29.286175 12.552865 0.649342 10.085994 18.367023 14.671112 -11.584359 
-0.345425 6.375259 -0.856071 -94.004440 0.000000 0.000000 3.329710 -0.490603 -0.393860 8.173230 -0.958410 -0.645233 2.498577 0.000000 0.000000 7.999140 0.000000 0.000000 16.682348 -10.283552 -18.372406 91.774849 -5.275973 0.249964 -4.583843 1.802077 -0.731206 -3.202825 21.255014 -46.789036 -16.866230 10.234789 -18.316299 -91.866257 5.275929 0.230902 4.569882 -1.826032 -0.719968 3.420341 -21.306589 -47.105370 -93.099091 44.222626 29.257105 13.110024 -0.625155 -10.079741 17.805363 -14.775156 11.402665 -93.091095 -44.304146 -29.286175 13.108731 0.649295 10.086050 18.367023 14.671113 -11.584359 
-0.345425 6.375259 -0.856071 -94.004440 0.000000 0.000000 3.329710 -0.490603 -0.393860 8.173230 -0.958410 -0.645233 2.998838 0.000000 0.000000 7.999141 0.000000 0.000000 16.682348 -10.283552 -18.372406 91.774849 -5.275974 0.249964 -4.583843 1.802077 -0.731206 -3.202825 21.255016 -46.789036 -16.866230 10.234790 -18.316301 -91.866257 5.275928 0.230902 4.569882 -1.826032 -0.719968 3.420341 -21.306589 -47.105370 -93.099106 44.222633 29.257109 13.665836 -0.625140 -10.079679 17.805363 -14.775158 11.402665 -93.091095 -44.304146 -29.286175 13.664546 0.649248 10.086102 18.367023 14.671112 -11.584359 
-0.345425 6.375259 -0.856071 -94.004440 0.000000 0.000000 3.329710 -0.490603 -0.393860 8.173230 -0.958410 -0.645233 3.499042 0.000000 0.000000 7.999141 0.000000 0.000000 16.682348 -10.283552 -18.372406 91.774849 -5.275974 0.249964 -4.583843 1.802077 -0.731206 -3.202825 21.255016 -46.789036 -16.866230 10.234790 -18.316301 -91.866257 5.275929 0.230902 4.569882 -1.826032 -0.719968 3.420341 -21.306589 -47.105370 -93.099106 44.222633 29.257109 14.221571 -0.625125 -10.079615 17.805363 -14.775158 11.402665 -93.091095 -44.304146 -29.286175 14.220277 0.649200 10.086157 18.367023 14.671113 -11.584359 
